<?xml version="1.0" standalone="no"?>
<!DOCTYPE svg PUBLIC "-//W3C//DTD SVG 20010904//EN"
 "http://www.w3.org/TR/2001/REC-SVG-20010904/DTD/svg10.dtd">
<svg version="1.0" xmlns="http://www.w3.org/2000/svg"
 width="300.000000pt" height="212.000000pt" viewBox="0 0 300.000000 212.000000"
 preserveAspectRatio="xMidYMid meet">

<g transform="translate(0.000000,212.000000) scale(0.100000,-0.100000)"
fill="#000000" stroke="none">
<path d="M2253 2105 c-114 -31 -187 -86 -230 -173 -39 -79 -39 -192 -2 -269
32 -66 20 -68 -25 -5 -55 75 -64 145 -31 247 10 31 -39 -30 -72 -90 -25 -45
-28 -60 -28 -145 0 -86 3 -100 29 -148 16 -29 45 -70 64 -93 43 -50 36 -61
-12 -18 -20 17 -38 30 -40 28 -7 -9 27 -145 45 -180 10 -21 35 -54 54 -74 39
-38 32 -44 -21 -19 -39 19 -72 69 -110 168 -14 36 -43 85 -65 109 -21 25 -39
48 -39 51 0 13 66 -27 87 -52 28 -34 30 -14 3 38 -25 49 -77 85 -150 103 l-55
15 29 13 c25 12 36 11 87 -7 32 -12 59 -19 59 -16 0 17 -58 76 -86 88 -38 16
-143 19 -192 5 -44 -13 -41 3 7 35 25 16 56 27 81 27 40 2 41 2 19 20 -12 9
-46 24 -76 33 -74 21 -138 11 -231 -37 -42 -21 -77 -38 -78 -36 -10 9 42 70
78 94 50 32 38 39 -46 29 -77 -10 -148 -55 -202 -129 -25 -34 -48 -64 -51 -67
-12 -13 12 59 32 98 13 23 20 42 16 42 -4 0 -27 -14 -49 -30 -82 -59 -132
-159 -132 -262 0 -26 -4 -48 -9 -48 -16 0 -34 70 -27 108 9 56 -11 24 -29 -46
-18 -70 -11 -127 25 -210 11 -25 18 -47 16 -49 -8 -9 -66 60 -77 92 -20 54
-33 42 -26 -24 9 -79 39 -155 87 -218 22 -29 36 -53 32 -53 -15 0 -78 43 -100
68 l-24 27 6 -30 c14 -61 61 -142 118 -198 32 -32 58 -61 58 -63 0 -7 -52 7
-82 23 -16 7 -28 10 -28 5 0 -15 74 -124 109 -161 17 -19 30 -36 27 -38 -6 -6
-47 16 -73 40 -39 35 -41 12 -7 -113 l7 -25 -22 20 c-13 11 -31 35 -41 54
l-17 35 -13 -23 c-7 -13 -15 -50 -17 -83 -6 -56 -7 -58 -24 -42 -11 10 -24 35
-31 56 -11 37 -12 38 -31 21 -11 -10 -30 -40 -42 -66 -20 -43 -24 -46 -30 -27
-4 12 -4 42 0 67 l7 45 -32 -18 c-18 -11 -45 -34 -61 -53 -16 -19 -30 -33 -33
-30 -2 2 3 28 13 57 10 28 16 52 14 52 -15 0 -65 -34 -81 -55 -37 -46 -44 -23
-12 40 11 21 18 41 15 43 -9 9 -55 -9 -84 -34 -29 -24 -31 -24 -31 -6 0 10 11
36 25 56 14 20 25 39 25 41 0 11 -30 3 -74 -19 l-48 -24 7 25 c7 31 34 73 46
73 5 0 9 5 9 10 0 15 -51 12 -83 -4 -24 -13 -27 -13 -27 0 0 24 20 57 48 80
l26 21 -30 7 c-17 4 -43 2 -57 -3 -15 -6 -27 -8 -27 -5 0 17 25 46 51 60 29
15 30 16 12 29 -10 8 -33 17 -51 21 -32 6 -32 7 -16 25 9 11 28 19 41 19 34 0
28 16 -17 43 -45 26 -43 37 7 37 18 0 33 3 33 7 0 4 -15 22 -32 41 l-33 35 42
-6 c24 -3 43 -1 43 3 0 5 -12 23 -27 41 l-28 32 30 -7 c17 -4 39 -15 49 -24
18 -16 19 -16 12 8 -21 81 -21 76 0 60 10 -8 30 -23 43 -35 l24 -20 -6 33 c-4
17 -3 32 1 32 18 -1 90 -60 119 -99 36 -46 41 -43 18 12 -54 130 -198 183
-323 121 -129 -64 -212 -233 -199 -405 8 -105 23 -159 68 -257 94 -204 240
-343 438 -418 l84 -32 -31 -16 c-32 -16 -62 -52 -62 -72 0 -7 23 -17 51 -24
28 -7 71 -28 95 -46 l44 -34 231 0 c127 0 238 4 248 9 9 5 32 32 51 60 40 59
73 80 98 64 53 -33 5 -131 -49 -102 -30 16 -21 -9 13 -34 34 -25 71 -17 111
26 26 28 29 37 25 83 -4 49 -3 52 16 44 44 -16 55 -82 20 -121 -13 -15 -12
-16 10 -12 88 17 91 164 4 209 -45 23 -107 13 -224 -37 -122 -53 -223 -65
-264 -31 -24 20 -24 22 -10 49 9 15 63 59 124 99 132 88 188 142 224 214 24
49 27 67 27 155 l0 100 -68 140 c-105 219 -110 304 -23 391 33 33 52 44 89 49
65 10 132 -10 180 -54 81 -73 106 -171 88 -350 -23 -233 21 -354 187 -513 101
-97 192 -160 325 -228 l109 -56 18 -53 c26 -79 58 -106 122 -105 37 0 57 -5
69 -17 10 -10 36 -23 57 -30 86 -25 172 23 172 96 0 32 -8 45 -55 92 -41 41
-55 62 -55 84 0 31 31 59 65 59 30 0 67 -43 75 -87 l7 -38 11 28 c26 63 5 147
-46 187 -16 13 -40 20 -70 20 -53 0 -94 -27 -143 -94 l-31 -45 -79 42 c-43 23
-79 44 -79 47 0 3 29 11 65 17 123 21 233 88 295 178 26 37 35 43 76 48 61 6
96 40 96 91 l0 37 31 -19 c46 -26 73 -76 58 -108 -15 -33 -57 -48 -98 -36 -29
9 -32 8 -24 -6 38 -70 123 -89 167 -39 41 48 34 85 -33 183 -36 52 -42 88 -16
102 37 21 76 -19 86 -88 l3 -25 12 28 c17 40 14 86 -7 134 -23 50 -62 78 -111
78 -51 0 -88 -29 -114 -86 -17 -40 -25 -49 -48 -49 -23 0 -29 7 -43 49 -25 77
-80 131 -182 180 -118 57 -157 85 -192 138 -74 111 -34 229 75 226 41 -1 85
-37 113 -91 l17 -34 13 44 c7 23 24 58 38 76 24 31 24 34 8 58 -21 32 -88 63
-136 64 -20 0 -56 -7 -79 -15 -24 -8 -45 -13 -47 -11 -6 5 24 64 49 96 28 36
88 70 124 70 44 0 96 -38 119 -87 11 -23 23 -42 26 -43 4 0 9 18 13 41 7 46
53 141 88 185 52 64 51 63 28 57 -14 -4 -48 7 -94 31 -66 34 -74 35 -111 25
-22 -6 -72 -36 -112 -66 -95 -73 -135 -79 -188 -31 -29 27 -38 43 -42 78 -10
91 32 178 106 217 50 26 32 29 -46 8z m368 -255 c21 -12 25 -40 7 -58 -26 -26
-98 -7 -98 26 0 38 48 55 91 32z m-376 -136 c14 -3 32 -4 40 0 8 3 15 1 15 -3
0 -11 -68 -71 -80 -71 -18 0 -40 46 -40 84 l0 40 20 -22 c11 -12 32 -25 45
-28z m-277 -723 c50 -81 99 -95 164 -49 l27 19 10 -38 c6 -21 11 -61 11 -90 0
-135 -136 -143 -197 -11 -24 51 -62 218 -50 218 2 0 18 -22 35 -49z m740 -263
c2 -13 -4 -31 -13 -38 -21 -17 -23 -12 -17 33 5 42 25 46 30 5z m-348 -563 c0
-7 -6 -18 -14 -24 -12 -10 -19 -8 -35 8 -12 12 -21 27 -21 35 0 12 6 12 35 3
19 -6 35 -16 35 -22z m197 16 c40 -25 50 -54 29 -86 -18 -27 -58 -33 -98 -14
l-24 10 26 54 c14 30 27 55 30 55 3 0 19 -9 37 -19z"/>
</g>
</svg>
